<svg xmlns="http://www.w3.org/2000/svg" xmlns:xlink="http://www.w3.org/1999/xlink" viewBox="0 0 541.72 421.45"><defs><style>.cls-1{mask:url(#mask);filter:url(#luminosity-noclip-9)}.cls-10,.cls-12,.cls-14,.cls-16,.cls-2,.cls-4,.cls-6,.cls-8{mix-blend-mode:multiply}.cls-2{fill:url(#Áåçûìÿííûé_ãðàäèåíò_129)}.cls-3{mask:url(#mask-2);filter:url(#luminosity-noclip-14)}.cls-4{fill:url(#Áåçûìÿííûé_ãðàäèåíò_129-2)}.cls-5{mask:url(#mask-3);filter:url(#luminosity-noclip-15)}.cls-6{fill:url(#Áåçûìÿííûé_ãðàäèåíò_129-3)}.cls-7{mask:url(#mask-4);filter:url(#luminosity-noclip-16)}.cls-8{fill:url(#Áåçûìÿííûé_ãðàäèåíò_129-4)}.cls-9{mask:url(#mask-5);filter:url(#luminosity-noclip-10)}.cls-10{fill:url(#Áåçûìÿííûé_ãðàäèåíò_129-5)}.cls-11{mask:url(#mask-6);filter:url(#luminosity-noclip-11)}.cls-12{fill:url(#Áåçûìÿííûé_ãðàäèåíò_129-6)}.cls-13{mask:url(#mask-7);filter:url(#luminosity-noclip-12)}.cls-14{fill:url(#Áåçûìÿííûé_ãðàäèåíò_129-7)}.cls-15{mask:url(#mask-8);filter:url(#luminosity-noclip-13)}.cls-16{fill:url(#Áåçûìÿííûé_ãðàäèåíò_129-8)}.cls-17{opacity:.7}.cls-18{mask:url(#mask-9)}.cls-19,.cls-21,.cls-23,.cls-25,.cls-27,.cls-29,.cls-31,.cls-33{opacity:.66}.cls-19{fill:url(#Áåçûìÿííûé_ãðàäèåíò_364)}.cls-20{mask:url(#mask-10)}.cls-21{fill:url(#Áåçûìÿííûé_ãðàäèåíò_364-2)}.cls-22{mask:url(#mask-11)}.cls-23{fill:url(#Áåçûìÿííûé_ãðàäèåíò_364-3)}.cls-24{mask:url(#mask-12)}.cls-25{fill:url(#Áåçûìÿííûé_ãðàäèåíò_364-4)}.cls-26{mask:url(#mask-13)}.cls-27{fill:url(#Áåçûìÿííûé_ãðàäèåíò_364-5)}.cls-28{mask:url(#mask-14)}.cls-29{fill:url(#Áåçûìÿííûé_ãðàäèåíò_364-6)}.cls-30{mask:url(#mask-15)}.cls-31{fill:url(#Áåçûìÿííûé_ãðàäèåíò_364-7)}.cls-32{mask:url(#mask-16)}.cls-33{fill:url(#Áåçûìÿííûé_ãðàäèåíò_364-8)}</style><filter id="luminosity-noclip" width="294.23" height="32766" x="0" y="-8411.12" color-interpolation-filters="sRGB" filterUnits="userSpaceOnUse"><feFlood flood-color="#fff" result="bg"/><feBlend in="SourceGraphic" in2="bg"/></filter><linearGradient id="Áåçûìÿííûé_ãðàäèåíò_129" x1="-560.55" x2="-560.55" y1="1858.2" y2="1571.35" gradientTransform="matrix(0.87, -0.5, 1, 0.58, -1075.62, -942.59)" gradientUnits="userSpaceOnUse"><stop offset="0"/><stop offset=".06" stop-color="#2a2a2a"/><stop offset=".15" stop-color="#626262"/><stop offset=".23" stop-color="#929292"/><stop offset=".31" stop-color="#b6b6b6"/><stop offset=".39" stop-color="#d1d1d1"/><stop offset=".45" stop-color="#e0e0e0"/><stop offset=".51" stop-color="#e6e6e6"/><stop offset=".55" stop-color="#dedede"/><stop offset=".62" stop-color="#c9c9c9"/><stop offset=".71" stop-color="#a7a7a7"/><stop offset=".8" stop-color="#787878"/><stop offset=".91" stop-color="#3b3b3b"/><stop offset="1"/></linearGradient><filter id="luminosity-noclip-2" width="371.44" height="32766" x="120.34" y="-8411.12" color-interpolation-filters="sRGB" filterUnits="userSpaceOnUse"><feFlood flood-color="#fff" result="bg"/><feBlend in="SourceGraphic" in2="bg"/></filter><linearGradient id="Áåçûìÿííûé_ãðàäèåíò_129-2" x1="-268.51" x2="-268.51" y1="1801.91" y2="1437.61" xlink:href="#Áåçûìÿííûé_ãðàäèåíò_129"/><filter id="luminosity-noclip-3" width="316.93" height="32766" x="125.37" y="-8411.12" color-interpolation-filters="sRGB" filterUnits="userSpaceOnUse"><feFlood flood-color="#fff" result="bg"/><feBlend in="SourceGraphic" in2="bg"/></filter><linearGradient id="Áåçûìÿííûé_ãðàäèåíò_129-3" x1="-390.08" x2="-390.08" y1="1858.2" y2="1548.58" xlink:href="#Áåçûìÿííûé_ãðàäèåíò_129"/><filter id="luminosity-noclip-4" width="137.11" height="32766" x="185.09" y="-8411.12" color-interpolation-filters="sRGB" filterUnits="userSpaceOnUse"><feFlood flood-color="#fff" result="bg"/><feBlend in="SourceGraphic" in2="bg"/></filter><linearGradient id="Áåçûìÿííûé_ãðàäèåíò_129-4" x1="-347.46" x2="-347.46" y1="1700.6" y2="1571.35" xlink:href="#Áåçûìÿííûé_ãðàäèåíò_129"/><filter id="luminosity-noclip-5" width="157.28" height="32766" x="105.49" y="-8411.12" color-interpolation-filters="sRGB" filterUnits="userSpaceOnUse"><feFlood flood-color="#fff" result="bg"/><feBlend in="SourceGraphic" in2="bg"/></filter><linearGradient id="Áåçûìÿííûé_ãðàäèåíò_129-5" x1="-517.93" x2="-517.93" y1="1789.51" y2="1640.03" xlink:href="#Áåçûìÿííûé_ãðàäèåíò_129"/><filter id="luminosity-noclip-6" width="270.32" height="32766" x="173.15" y="-8411.12" color-interpolation-filters="sRGB" filterUnits="userSpaceOnUse"><feFlood flood-color="#fff" result="bg"/><feBlend in="SourceGraphic" in2="bg"/></filter><linearGradient id="Áåçûìÿííûé_ãðàäèåíò_129-6" x1="-475.25" x2="-475.25" y1="1933.5" y2="1670.76" xlink:href="#Áåçûìÿííûé_ãðàäèåíò_129"/><filter id="luminosity-noclip-7" width="478.88" height="32766" x="33.84" y="-8411.12" color-interpolation-filters="sRGB" filterUnits="userSpaceOnUse"><feFlood flood-color="#fff" result="bg"/><feBlend in="SourceGraphic" in2="bg"/></filter><linearGradient id="Áåçûìÿííûé_ãðàäèåíò_129-7" x1="-432.99" x2="-432.99" y1="1966.46" y2="1493.9" xlink:href="#Áåçûìÿííûé_ãðàäèåíò_129"/><filter id="luminosity-noclip-8" width="534.58" height="32766" x="7.13" y="-8411.12" color-interpolation-filters="sRGB" filterUnits="userSpaceOnUse"><feFlood flood-color="#fff" result="bg"/><feBlend in="SourceGraphic" in2="bg"/></filter><linearGradient id="Áåçûìÿííûé_ãðàäèåíò_129-8" x1="-309.15" x2="-309.15" y1="1887.55" y2="1359.33" xlink:href="#Áåçûìÿííûé_ãðàäèåíò_129"/><filter id="luminosity-noclip-9" width="294.23" height="171.73" x="0" y="248.15" color-interpolation-filters="sRGB" filterUnits="userSpaceOnUse"><feFlood flood-color="#fff" result="bg"/><feBlend in="SourceGraphic" in2="bg"/></filter><mask id="mask-9" width="294.23" height="171.73" x="0" y="248.15" maskUnits="userSpaceOnUse"><g class="cls-1"><path d="M4.81,250.08l-1.37.78c-5.07,2.89-4.47,8,1.36,11.4L269.69,417c5.82,3.4,14.66,3.81,19.73.92l1.37-.78c5.07-2.89,4.47-8-1.36-11.4L24.54,251C18.72,247.6,9.88,247.19,4.81,250.08Z" class="cls-2"/></g></mask><linearGradient id="Áåçûìÿííûé_ãðàäèåíò_364" x1="-560.55" x2="-560.55" y1="1858.2" y2="1571.35" gradientTransform="matrix(0.87, -0.5, 1, 0.58, -1075.62, -942.59)" gradientUnits="userSpaceOnUse"><stop offset="0" stop-color="#5761d7"/><stop offset=".01" stop-color="#5665d7"/><stop offset=".13" stop-color="#4f94da"/><stop offset=".24" stop-color="#49b8dd"/><stop offset=".34" stop-color="#45d3df"/><stop offset=".43" stop-color="#43e2e0"/><stop offset=".51" stop-color="#42e8e0"/><stop offset=".57" stop-color="#43e0df"/><stop offset=".67" stop-color="#46ccde"/><stop offset=".8" stop-color="#4ca9dc"/><stop offset=".93" stop-color="#537ad9"/><stop offset="1" stop-color="#5761d7"/></linearGradient><filter id="luminosity-noclip-10" width="157.28" height="91.71" x="105.49" y="267.04" color-interpolation-filters="sRGB" filterUnits="userSpaceOnUse"><feFlood flood-color="#fff" result="bg"/><feBlend in="SourceGraphic" in2="bg"/></filter><mask id="mask-10" width="157.28" height="91.71" x="105.49" y="267.04" maskUnits="userSpaceOnUse"><g class="cls-9"><path d="M110.3,269l-1.37.78c-5.07,2.89-4.47,8,1.36,11.4l127.94,74.76c5.82,3.4,14.66,3.81,19.73.92l1.37-.78c5.07-2.89,4.47-8-1.36-11.4L130,269.89C124.21,266.49,115.38,266.08,110.3,269Z" class="cls-10"/></g></mask><linearGradient id="Áåçûìÿííûé_ãðàäèåíò_364-2" x1="-517.93" x2="-517.93" y1="1789.51" y2="1640.03" xlink:href="#Áåçûìÿííûé_ãðàäèåíò_364"/><filter id="luminosity-noclip-11" width="270.32" height="157.62" x="173.15" y="263.83" color-interpolation-filters="sRGB" filterUnits="userSpaceOnUse"><feFlood flood-color="#fff" result="bg"/><feBlend in="SourceGraphic" in2="bg"/></filter><mask id="mask-11" width="270.32" height="157.62" x="173.15" y="263.83" maskUnits="userSpaceOnUse"><g class="cls-11"><path d="M178,265.76l-1.37.78c-5.07,2.89-4.47,8,1.36,11.4l241,140.66c5.82,3.4,14.66,3.81,19.73.92l1.37-.78c5.07-2.89,4.47-8-1.36-11.4l-241-140.66C191.87,263.27,183,262.86,178,265.76Z" class="cls-12"/></g></mask><linearGradient id="Áåçûìÿííûé_ãðàäèåíò_364-3" x1="-475.25" x2="-475.25" y1="1933.5" y2="1670.76" xlink:href="#Áåçûìÿííûé_ãðàäèåíò_364"/><filter id="luminosity-noclip-12" width="478.88" height="280.19" x="33.84" y="139.69" color-interpolation-filters="sRGB" filterUnits="userSpaceOnUse"><feFlood flood-color="#fff" result="bg"/><feBlend in="SourceGraphic" in2="bg"/></filter><mask id="mask-12" width="478.88" height="280.19" x="33.84" y="139.69" maskUnits="userSpaceOnUse"><g class="cls-13"><path d="M38.66,141.62l-1.37.78c-5.07,2.89-4.47,8,1.36,11.4L488.18,417c5.82,3.4,14.66,3.81,19.73.92l1.37-.78c5.07-2.89,4.47-8-1.36-11.4L58.39,142.54C52.56,139.13,43.73,138.72,38.66,141.62Z" class="cls-14"/></g></mask><linearGradient id="Áåçûìÿííûé_ãðàäèåíò_364-4" x1="-432.99" x2="-432.99" y1="1966.46" y2="1493.9" xlink:href="#Áåçûìÿííûé_ãðàäèåíò_364"/><filter id="luminosity-noclip-13" width="534.58" height="312.5" x="7.13" y="0" color-interpolation-filters="sRGB" filterUnits="userSpaceOnUse"><feFlood flood-color="#fff" result="bg"/><feBlend in="SourceGraphic" in2="bg"/></filter><mask id="mask-13" width="534.58" height="312.5" x="7.13" y="0" maskUnits="userSpaceOnUse"><g class="cls-15"><path d="M11.95,1.93l-1.37.78c-5.07,2.89-4.47,8,1.36,11.4L517.17,309.65c5.82,3.4,14.66,3.81,19.73.92l1.37-.78c5.07-2.89,4.47-8-1.36-11.4L31.68,2.85C25.85-.55,17-1,11.95,1.93Z" class="cls-16"/></g></mask><linearGradient id="Áåçûìÿííûé_ãðàäèåíò_364-5" x1="-309.15" x2="-309.15" y1="1887.55" y2="1359.33" xlink:href="#Áåçûìÿííûé_ãðàäèåíò_364"/><filter id="luminosity-noclip-14" width="371.44" height="216.84" x="120.34" y="25.54" color-interpolation-filters="sRGB" filterUnits="userSpaceOnUse"><feFlood flood-color="#fff" result="bg"/><feBlend in="SourceGraphic" in2="bg"/></filter><mask id="mask-14" width="371.44" height="216.84" x="120.34" y="25.54" maskUnits="userSpaceOnUse"><g class="cls-3"><path d="M125.15,27.47l-1.37.78c-5.07,2.89-4.47,8,1.36,11.4l342.1,199.89c5.82,3.4,14.66,3.81,19.73.92l1.37-.78c5.07-2.89,4.47-8-1.36-11.4L144.88,28.39C139.06,25,130.22,24.58,125.15,27.47Z" class="cls-4"/></g></mask><linearGradient id="Áåçûìÿííûé_ãðàäèåíò_364-6" x1="-268.51" x2="-268.51" y1="1801.91" y2="1437.61" xlink:href="#Áåçûìÿííûé_ãðàäèåíò_364"/><filter id="luminosity-noclip-15" width="316.93" height="184.99" x="125.37" y="150.42" color-interpolation-filters="sRGB" filterUnits="userSpaceOnUse"><feFlood flood-color="#fff" result="bg"/><feBlend in="SourceGraphic" in2="bg"/></filter><mask id="mask-15" width="316.93" height="184.99" x="125.37" y="150.42" maskUnits="userSpaceOnUse"><g class="cls-5"><path d="M130.18,152.35l-1.37.78c-5.07,2.89-4.47,8,1.36,11.4l287.59,168c5.82,3.4,14.66,3.81,19.73.92l1.37-.78c5.07-2.89,4.47-8-1.36-11.4l-287.59-168C144.09,149.87,135.26,149.45,130.18,152.35Z" class="cls-6"/></g></mask><linearGradient id="Áåçûìÿííûé_ãðàäèåíò_364-7" x1="-390.08" x2="-390.08" y1="1858.2" y2="1548.58" xlink:href="#Áåçûìÿííûé_ãðàäèåíò_364"/><filter id="luminosity-noclip-16" width="137.11" height="79.93" x="185.09" y="142.57" color-interpolation-filters="sRGB" filterUnits="userSpaceOnUse"><feFlood flood-color="#fff" result="bg"/><feBlend in="SourceGraphic" in2="bg"/></filter><mask id="mask-16" width="137.11" height="79.93" x="185.09" y="142.57" maskUnits="userSpaceOnUse"><g class="cls-7"><path d="M189.9,144.49l-1.37.78c-5.07,2.89-4.47,8,1.36,11.4l107.77,63c5.82,3.4,14.66,3.81,19.73.92l1.37-.78c5.07-2.89,4.47-8-1.36-11.4l-107.77-63C203.81,142,195,141.6,189.9,144.49Z" class="cls-8"/></g></mask><linearGradient id="Áåçûìÿííûé_ãðàäèåíò_364-8" x1="-347.46" x2="-347.46" y1="1700.6" y2="1571.35" xlink:href="#Áåçûìÿííûé_ãðàäèåíò_364"/></defs><title>stripes</title><g id="Capa_2" data-name="Capa 2"><g id="Ñëîé_1" data-name="Ñëîé 1"><g class="cls-17"><g class="cls-18"><path d="M4.81,250.08l-1.37.78c-5.07,2.89-4.47,8,1.36,11.4L269.69,417c5.82,3.4,14.66,3.81,19.73.92l1.37-.78c5.07-2.89,4.47-8-1.36-11.4L24.54,251C18.72,247.6,9.88,247.19,4.81,250.08Z" class="cls-19"/></g><g class="cls-20"><path d="M110.3,269l-1.37.78c-5.07,2.89-4.47,8,1.36,11.4l127.94,74.76c5.82,3.4,14.66,3.81,19.73.92l1.37-.78c5.07-2.89,4.47-8-1.36-11.4L130,269.89C124.21,266.49,115.38,266.08,110.3,269Z" class="cls-21"/></g><g class="cls-22"><path d="M178,265.76l-1.37.78c-5.07,2.89-4.47,8,1.36,11.4l241,140.66c5.82,3.4,14.66,3.81,19.73.92l1.37-.78c5.07-2.89,4.47-8-1.36-11.4l-241-140.66C191.87,263.27,183,262.86,178,265.76Z" class="cls-23"/></g><g class="cls-24"><path d="M38.66,141.62l-1.37.78c-5.07,2.89-4.47,8,1.36,11.4L488.18,417c5.82,3.4,14.66,3.81,19.73.92l1.37-.78c5.07-2.89,4.47-8-1.36-11.4L58.39,142.54C52.56,139.13,43.73,138.72,38.66,141.62Z" class="cls-25"/></g><g class="cls-26"><path d="M11.95,1.93l-1.37.78c-5.07,2.89-4.47,8,1.36,11.4L517.17,309.65c5.82,3.4,14.66,3.81,19.73.92l1.37-.78c5.07-2.89,4.47-8-1.36-11.4L31.68,2.85C25.85-.55,17-1,11.95,1.93Z" class="cls-27"/></g><g class="cls-28"><path d="M125.15,27.47l-1.37.78c-5.07,2.89-4.47,8,1.36,11.4l342.1,199.89c5.82,3.4,14.66,3.81,19.73.92l1.37-.78c5.07-2.89,4.47-8-1.36-11.4L144.88,28.39C139.06,25,130.22,24.58,125.15,27.47Z" class="cls-29"/></g><g class="cls-30"><path d="M130.18,152.35l-1.37.78c-5.07,2.89-4.47,8,1.36,11.4l287.59,168c5.82,3.4,14.66,3.81,19.73.92l1.37-.78c5.07-2.89,4.47-8-1.36-11.4l-287.59-168C144.09,149.87,135.26,149.45,130.18,152.35Z" class="cls-31"/></g><g class="cls-32"><path d="M189.9,144.49l-1.37.78c-5.07,2.89-4.47,8,1.36,11.4l107.77,63c5.82,3.4,14.66,3.81,19.73.92l1.37-.78c5.07-2.89,4.47-8-1.36-11.4l-107.77-63C203.81,142,195,141.6,189.9,144.49Z" class="cls-33"/></g></g></g></g></svg>