<svg xmlns="http://www.w3.org/2000/svg" xmlns:svg="http://www.w3.org/2000/svg" id="svg3025" width="100%" height="100%" version="1.1" viewBox="0 -256 1792 1792"><metadata id="metadata3035"/><g id="g3027" transform="matrix(1,0,0,-1,349.28814,1330.9831)"><path id="path3029" d="m 1099,704 q 0,-52 -37,-91 L 410,-38 q -37,-37 -90,-37 -53,0 -90,37 l -76,75 q -37,39 -37,91 0,53 37,90 l 486,486 -486,485 q -37,39 -37,91 0,53 37,90 l 76,75 q 36,38 90,38 54,0 90,-38 l 652,-651 q 37,-37 37,-90 z" style="fill:currentColor"/></g></svg>