<svg xmlns="http://www.w3.org/2000/svg" xmlns:xlink="http://www.w3.org/1999/xlink" width="177" height="529" version="1.1" viewBox="0 0 177 529"><title>Left_Hero_Blue_Form</title><desc>Created with Sketch.</desc><defs><linearGradient id="linearGradient-1" x1="-73.855%" x2="89.171%" y1="-105.067%" y2="81.035%"><stop offset="0%" stop-color="#00B3E6" stop-opacity=".8"/><stop offset="100%" stop-color="#00B3E6" stop-opacity=".1"/></linearGradient></defs><g id="HelloSign" fill="none" fill-rule="evenodd" stroke="none" stroke-width="1" opacity=".252"><g id="HelloSign-(March-23)" fill="url(#linearGradient-1)" transform="translate(0.000000, -222.000000)"><path id="Left_Hero_Blue_Form" d="M-248.374827,795.837862 C-267.295827,791.636862 -285.184827,784.319862 -299.514827,771.502862 C-323.214827,750.304862 -332.007827,709.941862 -310.488827,686.533862 C-289.575827,663.785862 -253.063827,666.896862 -225.082827,653.786862 C-196.181827,640.243862 -178.289827,609.592862 -171.990827,578.302862 C-164.297827,540.092862 -169.686827,499.478862 -176.822827,461.581862 C-182.784827,429.913862 -192.492827,392.963862 -175.332827,362.996862 C-164.779827,344.568862 -151.581827,327.181862 -134.070827,315.168862 C-116.559827,303.155862 -94.2508269,297.020862 -73.6368269,302.117862 C-38.5728269,310.787862 -19.3488269,345.223862 11.9211731,360.481862 C50.1121731,379.118862 96.3021731,378.863862 135.033173,398.473862 C200.914173,431.830862 235.799173,512.378862 224.707173,585.386862 C212.031173,668.810862 149.415173,724.439862 79.2261731,763.687862 C-12.8478269,815.172862 -108.797827,806.830862 -210.642827,800.748862 C-223.190827,799.998862 -236.002827,798.584862 -248.374827,795.837862" transform="translate(-48.004368, 552.809273) rotate(-221.000000) translate(48.004368, -552.809273)"/></g></g></svg>