<svg xmlns="http://www.w3.org/2000/svg" xmlns:xlink="http://www.w3.org/1999/xlink" width="256" height="287" preserveAspectRatio="xMidYMid" version="1.1" viewBox="0 0 256 287"><defs><linearGradient id="linearGradient-1" x1="14.551%" x2="411.685%" y1="49.972%" y2="49.972%"><stop offset="0%" stop-color="#FFF" stop-opacity="0"/><stop offset="100%" stop-color="#FFF"/></linearGradient><linearGradient id="linearGradient-2" x1="5.239%" x2="379.916%" y1="82.91%" y2="-193.342%"><stop offset="0%" stop-color="#FFF" stop-opacity="0"/><stop offset="100%" stop-color="#FFF"/></linearGradient><linearGradient id="linearGradient-3" x1="62.675%" x2="-363.978%" y1="44.012%" y2="243.704%"><stop offset="0%" stop-color="#FFF" stop-opacity="0"/><stop offset="100%" stop-color="#FFF"/></linearGradient><linearGradient id="linearGradient-4" x1="11.134%" x2="355.291%" y1="19.904%" y2="478.171%"><stop offset="0%" stop-color="#FFF" stop-opacity="0"/><stop offset="100%" stop-color="#FFF"/></linearGradient><linearGradient id="linearGradient-5" x1="53.115%" x2="46.266%" y1="2.534%" y2="110.506%"><stop offset="0%" stop-color="#1A3B54" stop-opacity="0"/><stop offset="100%" stop-color="#1A3B54"/></linearGradient></defs><g><path fill="#2A5D84" d="M142.4,3.9 C175.5,23 208.6,42.1 241.7,61.2 C251,66.6 256,75.5 256,86.9 L256,200.9 C256,211.7 251.1,220.1 241.9,225.5 C208.9,244.6 175.8,263.6 142.8,282.7 C133.2,288.3 122.8,288.2 113.1,282.6 C80.2,263.6 47.2,244.6 14.3,225.5 C6.4,221 0,211.9 0,200.4 L0,81.8 C0,71.4 4.9,66.1 14.1,60.8 L53.7,38 L53.7,186.3 L128,229.2 L202.3,186.3 L202.3,100.5 L128,57.6 L96.8,75.6 L96.8,13.6 C102.4,10.4 108,7.1 113.7,3.9 C122.4,-1.2 133.2,-1.4 142.4,3.9 L142.4,3.9 Z"/><path fill="#1A3B54" d="M159.2,125.2 L159.2,143.2 L159.2,161.2 L143.6,170.2 L128,179.3 L112.4,170.2 L96.8,161.2 L96.8,143.2 L96.8,125.2 L112.4,116.2 L128,107.2 L143.6,116.2 L159.2,125.2 Z"/><path fill="url(#linearGradient-1)" d="M158.1,125.9 L128,108.5 L97.9,125.9 L128,143.4 L158.1,125.9 Z"/><path fill="url(#linearGradient-2)" d="M128,178 L158.1,160.6 L158.1,125.9 L128,143.2 L128,178 Z"/><path fill="url(#linearGradient-3)" d="M128,178 L97.9,160.6 L97.9,125.9 L128,143.2 L128,178 Z"/><path fill="url(#linearGradient-4)" d="M97.9,14.3 L97.9,73.7 L128,56.3 L203.4,99.8 L203.4,100.1 L251.5,72.5 C249.2,68.3 245.8,64.8 241.1,62.1 C208,43.1 174.9,24 141.8,4.9 C133.2,-0.1 122.8,-0.1 114.2,4.9 C108.8,8 103.3,11.1 97.9,14.3 L97.9,14.3 Z"/><path fill="url(#linearGradient-5)" d="M52.6,186.8 L52.6,186.3 C52.6,136 52.8,88.3 52.8,38 L14.9,59.8 C6.1,64.9 1.1,71.7 1.1,81.8 L1.1,200.4 C1.1,205.3 2.4,210.1 4.7,214.3 L52.6,186.8 L52.6,186.8 Z"/></g></svg>