<svg xmlns="http://www.w3.org/2000/svg" viewBox="0 0 330.78 347.55"><defs><style>.cls-1{fill:#585afa}.cls-2{fill:#3836bd}.cls-3{fill:#f5f5fd}.cls-4{fill:#aaafd7}.cls-10,.cls-5,.cls-6,.cls-7{fill:none;stroke-linecap:round;stroke-linejoin:round}.cls-5,.cls-6{stroke:#92cdf5;stroke-width:1.97px}.cls-6{stroke:#3836bd}.cls-7{stroke:#f2516c;stroke-width:4px}.cls-8{fill:#ffc6c2}.cls-9{fill:#ffa69b}.cls-10{stroke:#ffdad9;stroke-width:2px}.cls-11{fill:#70bce5}.cls-12{fill:#29a0c1}.cls-13{fill:#fff}.cls-14{fill:#f2516c}.cls-15{fill:#db3e5f}.cls-16{fill:#2c218a}</style></defs><title>done</title><g id="Capa_2" data-name="Capa 2"><g id="OBJECTS"><path d="M222.1,56V340.59a7,7,0,0,1-7,7H7a7,7,0,0,1-7-7V56a7,7,0,0,1,7-7H215.14A7,7,0,0,1,222.1,56Z" class="cls-1"/><path d="M222.1,127.73V340.59a7,7,0,0,1-7,7H7a7,7,0,0,1-7-7V244.53Z" class="cls-2"/><polygon points="171.01 324.91 18.14 324.91 18.14 69.86 203.96 69.86 203.96 290.68 171.01 324.91" class="cls-3"/><polygon points="171.01 324.91 171.01 290.68 203.96 290.68 171.01 324.91" class="cls-4"/><line x1="73.69" x2="130.58" y1="131.54" y2="131.54" class="cls-5"/><line x1="73.69" x2="93.98" y1="148.78" y2="148.78" class="cls-5"/><line x1="104.69" x2="153.08" y1="148.78" y2="148.78" class="cls-5"/><line x1="82.03" x2="173.68" y1="140.16" y2="140.16" class="cls-5"/><line x1="188.58" x2="147.9" y1="131.54" y2="131.54" class="cls-5"/><rect width="21.71" height="21.71" x="39.58" y="131.54" class="cls-6"/><polyline points="46.88 140.17 51.78 145.28 70.5 131.54" class="cls-7"/><line x1="73.69" x2="92.18" y1="167.06" y2="167.06" class="cls-5"/><line x1="73.69" x2="86.78" y1="184.3" y2="184.3" class="cls-5"/><line x1="104.69" x2="163.51" y1="184.3" y2="184.3" class="cls-5"/><line x1="82.03" x2="116.38" y1="175.68" y2="175.68" class="cls-5"/><line x1="125.48" x2="185.62" y1="175.68" y2="175.68" class="cls-5"/><line x1="139.9" x2="104.69" y1="167.06" y2="167.06" class="cls-5"/><rect width="21.71" height="21.71" x="39.58" y="165.07" class="cls-6"/><polyline points="46.88 174.29 51.78 179.4 70.5 165.66" class="cls-7"/><line x1="73.69" x2="104.69" y1="202.58" y2="202.58" class="cls-5"/><line x1="73.69" x2="132.06" y1="219.82" y2="219.82" class="cls-5"/><line x1="147.48" x2="178.66" y1="219.82" y2="219.82" class="cls-5"/><line x1="82.03" x2="121.19" y1="211.2" y2="211.2" class="cls-5"/><line x1="172.89" x2="139.9" y1="211.2" y2="211.2" class="cls-5"/><line x1="188.58" x2="116.38" y1="202.58" y2="202.58" class="cls-5"/><rect width="21.71" height="21.71" x="39.58" y="198.6" class="cls-6"/><polyline points="46.88 207.23 51.78 212.34 70.5 198.6" class="cls-7"/><line x1="73.69" x2="130.58" y1="238.09" y2="238.09" class="cls-5"/><line x1="73.69" x2="93.98" y1="255.33" y2="255.33" class="cls-5"/><line x1="104.69" x2="153.08" y1="255.33" y2="255.33" class="cls-5"/><line x1="82.03" x2="173.68" y1="246.71" y2="246.71" class="cls-5"/><line x1="188.58" x2="147.9" y1="238.09" y2="238.09" class="cls-5"/><rect width="21.71" height="21.71" x="39.58" y="232.13" class="cls-6"/><polyline points="46.88 240.17 51.78 245.28 70.5 231.53" class="cls-7"/><path d="M171.19,39.55H144.5a7.37,7.37,0,0,1-7.34-8.5A26.54,26.54,0,0,0,111.38,0,26.5,26.5,0,0,0,84.55,26.5a26.88,26.88,0,0,0,.28,3.83,8.11,8.11,0,0,1-8.07,9.21H50.91a7.31,7.31,0,0,0-7.18,7.31V69.09a7.3,7.3,0,0,0,4,6.51,7.14,7.14,0,0,0,3.19.8H171.19a7.31,7.31,0,0,0,7.18-7.31V46.86A7.31,7.31,0,0,0,171.19,39.55Zm-60.14-27.5A14.45,14.45,0,1,1,96.6,26.5,14.45,14.45,0,0,1,111.05,12.05Z" class="cls-8"/><path d="M178.37,46.86V69.09a7.31,7.31,0,0,1-7.18,7.31H50.91a7.14,7.14,0,0,1-3.19-.8L151.17,39.54h20A7.31,7.31,0,0,1,178.37,46.86Z" class="cls-9"/><line x1="52.43" x2="169.67" y1="46.65" y2="46.65" class="cls-10"/><line x1="52.43" x2="169.67" y1="53.67" y2="53.67" class="cls-10"/><line x1="52.43" x2="169.67" y1="60.68" y2="60.68" class="cls-10"/><path d="M236.75,92l-3.11,12.77s16.25,10.85,25.15-6.39l-10-12.5Z" class="cls-8"/><polygon points="230.45 196.4 217.71 263.82 273.29 317.97 281.62 307.53 247.84 258.73 257.11 188.46 230.45 196.4" class="cls-11"/><polygon points="252.49 190.08 282.68 179.5 255.27 323 240.31 320.86 252.49 190.08" class="cls-11"/><polygon points="255.88 197.77 247.84 258.73 240.39 252.83 255.88 197.77" class="cls-12"/><polygon points="243.3 288.75 255.98 319.29 258.78 304.66 243.3 288.75" class="cls-12"/><path d="M233.88,98.73s12.9,17,24.28-2.36L282.68,106l9.4,26-14.26,9.22-4.62-14.42-2.55,24,14.19,33.86L230.45,196.4,216,130.27l-6.76,3.11-8.19-15.51L220.16,103Z" class="cls-1"/><polygon points="209.25 133.38 201.06 117.87 194.82 123.78 198.33 99.37 210.04 82.04 198.99 73.78 192.49 79.29 190.6 74.94 187.74 76.79 193.16 85.4 180.08 125.84 183.1 143.07 209.25 133.38" class="cls-8"/><polygon points="217.18 194.86 205.1 208.71 222.34 208.71 217.18 194.86" class="cls-9"/><polygon points="235.59 96.78 246.22 99.09 250.02 87.41 248.82 85.9 236.75 92.01 235.59 96.78" class="cls-9"/><polygon points="229.03 80.18 235.87 93.89 245.18 94.61 250.67 86.45 243.21 67.59 226.53 74.1 229.03 80.18" class="cls-8"/><circle cx="230.78" cy="83.22" r="2.12" class="cls-8" transform="translate(-14.02 67.09) rotate(-16.06)"/><circle cx="246.33" cy="76.56" r="2.12" class="cls-8" transform="translate(-11.57 71.14) rotate(-16.06)"/><path d="M237.54,84.19h8.28a0,0,0,0,1,0,0v1.93a2.21,2.21,0,0,1-2.21,2.21h-3.85a2.21,2.21,0,0,1-2.21-2.21V84.19A0,0,0,0,1,237.54,84.19Z" class="cls-13" transform="translate(-14.2 105.67) rotate(-23.98)"/><polygon points="237.44 75.02 237.04 83.72 241.8 82.43 237.44 75.02" class="cls-9"/><path d="M246.33,76.56s2.25-2.14-1.37-10.74c0,0-1.24-1.9-3.16-1.63,0,0-4-6.88-15-1.72,0,0-14.92,6.75,2.64,18.63,0,0,3.92,1.28,6.48-6.87a6.42,6.42,0,0,1,5.17-4.46c1.41-.2,2.75,0,3.28,1.39Z" class="cls-2"/><polygon points="273.2 126.75 261.49 152.04 274.62 187.93 284.84 184.65 270.65 150.79 273.2 126.75" class="cls-2"/><polygon points="217.18 194.86 316.61 153.8 322.76 168.72 222.34 208.71 217.18 194.86" class="cls-14"/><path d="M316.61,153.8l3-1.24a8.07,8.07,0,0,1,10.52,4.39h0a8.07,8.07,0,0,1-4.4,10.54l-3,1.23Z" class="cls-9"/><polygon points="216.01 130.27 218.66 113.17 209.25 133.38 216.01 130.27" class="cls-2"/><polygon points="198.33 99.37 191.14 123.28 194.82 123.78 198.33 99.37" class="cls-9"/><polygon points="322.76 168.72 222.34 208.71 220.94 204.95 321.5 165.66 322.76 168.72" class="cls-15"/><polygon points="274.62 187.93 284.84 159.76 277.82 141.16 292.08 131.94 301.97 158.12 288.02 185.18 279.34 196.96 268.95 197.77 263.4 192.35 274.62 187.93" class="cls-8"/><polygon points="274.62 187.93 268.95 197.77 263.4 192.35 274.62 187.93" class="cls-9"/><polygon points="274.93 315.91 277 331.12 272.61 342.56 278.31 347.55 294.25 315.33 280.61 308.79 274.93 315.91" class="cls-16"/><polygon points="242.82 321.22 241.29 326.34 238.01 334.11 241.29 347 249.38 347 255.06 337.34 251.01 327.91 251.36 322.44 242.82 321.22" class="cls-16"/><polygon points="278.05 312 281.62 327.32 273.97 343.76 272.61 342.56 276.6 328.17 274.93 315.91 278.05 312" class="cls-2"/><polygon points="244.53 321.46 241.92 332.98 243.23 340.6 247.59 340.6 249.66 332.76 248.22 321.99 244.53 321.46" class="cls-2"/></g></g></svg>